<?xml version="1.0" standalone="no"?>
<svg viewBox="0 0 200 200" xmlns="http://www.w3.org/2000/svg">
  <path fill="#FF0066" d="M30.5,-48.5C39.9,-41.4,48.2,-33.6,58.1,-23.2C68.1,-12.8,79.8,0.2,77.8,10.9C75.8,21.6,60.2,30.1,48.2,39.1C36.2,48,27.9,57.4,16.9,63.1C5.9,68.9,-7.8,71,-20.6,68.1C-33.4,65.2,-45.3,57.4,-53.6,47C-61.8,36.5,-66.3,23.3,-67.8,10C-69.3,-3.3,-67.7,-16.8,-62.5,-28.7C-57.3,-40.7,-48.5,-51.2,-37.5,-57.6C-26.4,-63.9,-13.2,-66.2,-1.3,-64.1C10.5,-62,21.1,-55.6,30.5,-48.5Z" transform="translate(100 100)" />
</svg>
